<svg xmlns="http://www.w3.org/2000/svg" viewBox="0 0 64 64">
  <rect width="64" height="64" rx="14" fill="#0d7c66"/>
  <path d="M18 22c0-6 5-10 13-10 5 0 9 1.5 12 4.1l-4.3 6.1c-2.3-1.8-4.9-2.7-8-2.7-3.1 0-4.9 1-4.9 2.8 0 2 2.4 2.5 6.3 3.4 6.7 1.5 12.2 3.6 12.2 11.2 0 6.8-5.4 11.2-14 11.2-6.4 0-11.5-2-15-5.6l4.7-5.8c2.8 2.6 6.1 4 10.1 4 3.5 0 5.5-1.2 5.5-3.2 0-2.2-2.4-2.8-6.8-3.8C23.4 32.2 18 30.2 18 22z" fill="#fff"/>
  <path d="M45 46c-3.7 2.5-7.7 3.8-12.2 3.8-10.8 0-18.8-7.6-18.8-17.8 0-10.4 8.1-17.8 19-17.8 4.6 0 8.7 1.3 12 3.8l-4.6 6.3c-2.1-1.5-4.5-2.3-7.2-2.3-5.9 0-10.1 4.2-10.1 10s4.2 10 10.1 10c2.9 0 5.4-.9 7.8-2.7L45 46z" fill="#f2b84b" opacity=".9"/>
</svg>
