<svg xmlns="http://www.w3.org/2000/svg" viewBox="0 0 64 64" role="img" aria-labelledby="title desc">
  <title id="title">SellCopy Tools favicon</title>
  <desc id="desc">A simple blue copywriting spark icon.</desc>
  <rect width="64" height="64" rx="14" fill="#0f172a"/>
  <path d="M18 42V21c0-2.2 1.8-4 4-4h15.5L46 25.5V42c0 2.2-1.8 4-4 4H22c-2.2 0-4-1.8-4-4Z" fill="#ffffff"/>
  <path d="M37 17v7c0 1.7 1.3 3 3 3h6" fill="#bfdbfe"/>
  <path d="M24 32h16M24 38h11" stroke="#2563eb" stroke-width="3" stroke-linecap="round"/>
  <path d="M14 18l2-5 2 5 5 2-5 2-2 5-2-5-5-2 5-2Z" fill="#38bdf8"/>
  <path d="M48 43l1.5-3.5L51 43l3.5 1.5L51 46l-1.5 3.5L48 46l-3.5-1.5L48 43Z" fill="#22c55e"/>
</svg>
